<svg xmlns="http://www.w3.org/2000/svg" width="269" height="51" fill="none"><path fill="#000" d="M38.185 2.038a16.755 16.755 0 0 0-2.768 2.646c.834.52 1.538 1.093 2.112 1.722a8.93 8.93 0 0 1 1.374 1.887c.356.643.609 1.278.76 1.907.15.63.225 1.21.225 1.743 0 1.34-.253 2.51-.76 3.507a7.374 7.374 0 0 1-2.009 2.461 8.435 8.435 0 0 1-2.85 1.477 11.688 11.688 0 0 1-3.323.471 16.82 16.82 0 0 1-3.794-.43 60.727 60.727 0 0 1-1.866 3.63 36.169 36.169 0 0 1-2.194 3.465 26.352 26.352 0 0 1-2.564 3.077 16.71 16.71 0 0 1-2.973 2.44 13.87 13.87 0 0 1-3.425 1.64c-1.23.397-2.543.595-3.938.595-1.353 0-2.604-.218-3.753-.656a8.355 8.355 0 0 1-2.973-1.907c-.834-.848-1.484-1.873-1.948-3.076C1.053 27.42.82 26.032.82 24.474c0-2.024.342-3.972 1.026-5.845a21.275 21.275 0 0 1 2.85-5.25 24.748 24.748 0 0 1 4.286-4.43 28.776 28.776 0 0 1 5.312-3.404 29.44 29.44 0 0 1 5.968-2.194 25.62 25.62 0 0 1 6.234-.78c1.627 0 3.07.137 4.327.41 1.272.26 2.393.609 3.364 1.046a18.083 18.083 0 0 1 1.722-1.333 12.94 12.94 0 0 1 1.948-1.128l.328.472ZM25.43 17.727a163.06 163.06 0 0 1 1.866-3.774 66.313 66.313 0 0 1 1.866-3.445 38.073 38.073 0 0 1 1.99-3.056 22.025 22.025 0 0 1 2.214-2.645 13.734 13.734 0 0 0-2.953-.78 21.996 21.996 0 0 0-3.384-.246c-1.654 0-3.274.198-4.86.595a24.844 24.844 0 0 0-4.594 1.64 27.55 27.55 0 0 0-4.204 2.441 32.358 32.358 0 0 0-3.712 3.076 32.113 32.113 0 0 0-3.097 3.487 27.058 27.058 0 0 0-2.358 3.65 20.364 20.364 0 0 0-1.497 3.65c-.342 1.19-.513 2.325-.513 3.405a7.58 7.58 0 0 0 .575 2.953c.382.902.909 1.688 1.579 2.358a7.49 7.49 0 0 0 2.42 1.58c.943.382 1.975.574 3.096.574 1.737 0 3.295-.342 4.676-1.026 1.38-.684 2.66-1.654 3.835-2.912 1.176-1.271 2.29-2.796 3.343-4.573a95.603 95.603 0 0 0 3.22-5.948 18.151 18.151 0 0 1-3.958-2.153l.328-.574c.656.328 1.319.642 1.989.943.683.287 1.394.547 2.133.78Zm12.304-6.953c0-1.216-.266-2.255-.8-3.117-.519-.861-1.25-1.579-2.194-2.153-1.244 1.613-2.433 3.493-3.568 5.64a147.528 147.528 0 0 0-3.486 7.136c.396.069.793.123 1.189.164.396.028.8.041 1.21.041a7.77 7.77 0 0 0 2.933-.553 7.451 7.451 0 0 0 2.44-1.559 7.642 7.642 0 0 0 1.661-2.44c.41-.944.615-1.996.615-3.159Zm2.502 13.207a28.17 28.17 0 0 1 2.256-2.707 18.808 18.808 0 0 1 2.359-2.153c.793-.601 1.572-1.066 2.337-1.394.78-.342 1.532-.513 2.256-.513.492 0 .896.075 1.21.226.328.15.581.348.76.594.19.233.32.492.389.78.082.287.123.574.123.86 0 .493-.103 1.026-.308 1.6a15.9 15.9 0 0 1-.78 1.764c-.3.615-.628 1.244-.983 1.887-.356.642-.69 1.271-1.005 1.886-.301.616-.554 1.217-.76 1.805-.204.574-.307 1.114-.307 1.62 0 .315.069.609.205.882.15.26.41.39.78.39.437 0 .922-.219 1.456-.656a12.236 12.236 0 0 0 1.62-1.703c.56-.697 1.114-1.47 1.66-2.317.561-.848 1.081-1.675 1.56-2.481l.738.574c-.15.205-.356.54-.615 1.005-.26.45-.568.964-.923 1.538-.342.56-.732 1.141-1.17 1.743a13.645 13.645 0 0 1-1.373 1.661 7.28 7.28 0 0 1-1.518 1.21c-.533.328-1.073.492-1.62.492a4.73 4.73 0 0 1-1.066-.123 2.5 2.5 0 0 1-.964-.451 2.384 2.384 0 0 1-.697-.882c-.178-.383-.267-.861-.267-1.435 0-.67.11-1.347.328-2.03.232-.698.513-1.381.84-2.051.343-.684.712-1.34 1.108-1.97a90.7 90.7 0 0 0 1.087-1.804 18.3 18.3 0 0 0 .841-1.517c.232-.465.349-.855.349-1.17 0-.56-.274-.84-.82-.84-.78 0-1.607.26-2.482.78-.862.505-1.73 1.168-2.605 1.988a29.894 29.894 0 0 0-2.584 2.769 57.524 57.524 0 0 0-2.379 3.035l-3.117 5.865L34.29 32a585.745 585.745 0 0 0 5.004-11.218 422.694 422.694 0 0 1 4.963-10.971c.26-.561.56-1.17.902-1.826.356-.656.732-1.312 1.128-1.968.41-.657.848-1.286 1.313-1.887.465-.602.943-1.135 1.435-1.6a6.913 6.913 0 0 1 1.518-1.107c.533-.287 1.066-.43 1.6-.43.6 0 1.066.17 1.394.512.342.328.513.8.513 1.415 0 .643-.171 1.374-.513 2.194a17.65 17.65 0 0 1-1.374 2.564 31.932 31.932 0 0 1-2.01 2.789 56.41 56.41 0 0 1-2.4 2.85 81.612 81.612 0 0 1-2.542 2.748c-.862.875-1.689 1.689-2.482 2.44l-2.502 5.476ZM52.254 2.08c-.615 0-1.183.24-1.702.718-.506.465-1.06 1.237-1.661 2.317-.602 1.08-1.292 2.489-2.072 4.225-.779 1.736-1.73 3.869-2.85 6.398 1.504-1.463 2.816-2.878 3.937-4.245 1.135-1.38 2.078-2.638 2.83-3.773.752-1.135 1.313-2.12 1.682-2.953.383-.848.574-1.477.574-1.887 0-.246-.068-.438-.205-.574a.687.687 0 0 0-.533-.226Zm12.038 11.73c0 .274-.068.561-.205.862a3.031 3.031 0 0 1-.533.78 2.791 2.791 0 0 1-.698.573c-.26.15-.52.226-.779.226-.232 0-.41-.082-.533-.246a1.089 1.089 0 0 1-.185-.636c0-.219.041-.478.123-.78.083-.3.206-.58.37-.84.164-.273.362-.506.594-.697.233-.192.5-.287.8-.287.287 0 .533.109.738.328.205.218.308.458.308.718Zm-3.835 4.553c-.178.356-.43.828-.759 1.415-.314.575-.656 1.21-1.025 1.908-.37.683-.745 1.408-1.128 2.173-.383.752-.732 1.49-1.046 2.215-.3.711-.547 1.381-.738 2.01-.192.629-.287 1.162-.287 1.6 0 .396.082.67.246.82.164.137.396.205.697.205.56 0 1.107-.185 1.64-.554a8.887 8.887 0 0 0 1.58-1.435 18.274 18.274 0 0 0 1.558-2.051c.506-.766 1.012-1.538 1.518-2.317l.738.574c-.396.71-.848 1.47-1.353 2.276a15.983 15.983 0 0 1-1.661 2.256 9.144 9.144 0 0 1-2.03 1.702 4.553 4.553 0 0 1-2.42.677c-.821 0-1.45-.246-1.887-.738-.438-.492-.657-1.128-.657-1.908 0-.916.212-1.873.636-2.87.424-.999.95-1.983 1.58-2.954a32.652 32.652 0 0 1 2.07-2.83c.752-.902 1.443-1.723 2.072-2.46l.656.286Zm17.104-16.2c.478 0 .874.115 1.189.348.328.232.492.656.492 1.271 0 .424-.089.93-.266 1.518-.165.588-.397 1.23-.698 1.928A30.08 30.08 0 0 1 77.253 9.4a37.957 37.957 0 0 1-1.292 2.256 33.61 33.61 0 0 1-1.436 2.195c-.492.71-.984 1.367-1.476 1.968a116.481 116.481 0 0 1-2.564 3.076c-.71.835-1.326 1.545-1.845 2.133a64.13 64.13 0 0 1-1.313 1.415c-.355.356-.67.663-.943.923-.274.26-.527.5-.759.718a11.26 11.26 0 0 0-.718.697 7.272 7.272 0 0 0-.164 1.497c.014.465.02.896.02 1.292 0 1.19.192 2.072.575 2.646.383.574.923.861 1.62.861.465 0 .93-.116 1.395-.349.478-.246.95-.56 1.415-.943.464-.383.916-.813 1.353-1.292.438-.492.848-.984 1.23-1.476.397-.506.752-.992 1.067-1.456l.82-1.21.76.574c-.042.055-.179.273-.411.656-.219.37-.513.82-.882 1.354-.37.533-.807 1.107-1.312 1.722a15.899 15.899 0 0 1-1.641 1.682c-.588.52-1.21.95-1.866 1.292a4.147 4.147 0 0 1-1.969.513c-.56 0-1.1-.103-1.62-.308a3.806 3.806 0 0 1-1.354-1.005c-.383-.465-.697-1.053-.943-1.764-.232-.71-.349-1.565-.349-2.563 0-1.244.144-2.543.431-3.897.3-1.367.704-2.734 1.21-4.101.506-1.381 1.1-2.741 1.784-4.081a46.265 46.265 0 0 1 2.174-3.815 36.643 36.643 0 0 1 2.42-3.363 27.037 27.037 0 0 1 2.481-2.686c.82-.752 1.607-1.34 2.359-1.764.752-.424 1.435-.636 2.05-.636ZM65.276 22.955a104.214 104.214 0 0 0 3.364-3.65 85.065 85.065 0 0 0 5.68-7.199 39.127 39.127 0 0 0 2.03-3.24c.561-1.012.999-1.934 1.313-2.768.315-.834.472-1.552.472-2.154 0-.11-.055-.253-.164-.43-.11-.192-.24-.287-.39-.287-.424 0-.984.28-1.682.84-.697.56-1.456 1.327-2.276 2.297a41.35 41.35 0 0 0-2.522 3.364 44.263 44.263 0 0 0-2.44 4.122 43.668 43.668 0 0 0-2.052 4.532 26.782 26.782 0 0 0-1.333 4.573Zm18.17-9.146c0 .273-.068.56-.205.86a3.031 3.031 0 0 1-.533.78 2.791 2.791 0 0 1-.697.574c-.26.15-.52.226-.78.226-.232 0-.41-.082-.533-.246a1.089 1.089 0 0 1-.184-.636c0-.219.04-.478.123-.78.082-.3.205-.58.369-.84.164-.273.362-.506.595-.697.232-.192.499-.287.8-.287.287 0 .533.109.738.328.205.218.307.458.307.718Zm-3.835 4.552c-.177.356-.43.828-.758 1.415-.315.575-.657 1.21-1.026 1.908-.369.683-.745 1.408-1.128 2.173-.383.752-.731 1.49-1.046 2.215-.3.711-.547 1.381-.738 2.01-.191.629-.287 1.162-.287 1.6 0 .396.082.67.246.82.164.137.397.205.697.205.56 0 1.108-.185 1.64-.554a8.887 8.887 0 0 0 1.58-1.435 18.274 18.274 0 0 0 1.559-2.051c.506-.766 1.011-1.538 1.517-2.317l.739.574c-.397.71-.848 1.47-1.354 2.276a15.983 15.983 0 0 1-1.661 2.256 9.144 9.144 0 0 1-2.03 1.702 4.553 4.553 0 0 1-2.42.677c-.82 0-1.45-.246-1.887-.738-.438-.492-.656-1.128-.656-1.908 0-.916.212-1.873.635-2.87.424-.999.95-1.983 1.58-2.954a32.652 32.652 0 0 1 2.07-2.83c.753-.902 1.443-1.723 2.072-2.46l.656.286Zm9.413-4.245L84.37 23.47a31.681 31.681 0 0 1 2.584-2.933c.903-.916 1.825-1.661 2.769-2.235.697-.41 1.312-.69 1.845-.841a5.162 5.162 0 0 1 1.518-.246c.465 0 .848.075 1.148.226.301.15.54.348.718.594.178.246.301.52.37.82.068.288.102.575.102.862 0 .642-.11 1.278-.328 1.907a13.129 13.129 0 0 1-.82 1.866 22.324 22.324 0 0 1-1.047 1.825 35.18 35.18 0 0 0-1.066 1.744c-.314.56-.58 1.114-.8 1.66a4.245 4.245 0 0 0-.328 1.58c0 .246.027.451.082.615.069.15.15.273.246.37.11.081.226.136.349.163a1.7 1.7 0 0 0 .37.041c.259 0 .56-.116.901-.348.356-.246.732-.56 1.128-.944.397-.396.8-.84 1.21-1.333.424-.506.828-1.018 1.21-1.538.397-.533.766-1.053 1.108-1.558.341-.52.642-.992.902-1.415l.759.574c-.15.3-.376.697-.677 1.19a25.151 25.151 0 0 1-1.025 1.599 27.22 27.22 0 0 1-1.313 1.702 14.35 14.35 0 0 1-1.476 1.538c-.52.465-1.053.84-1.6 1.128-.533.3-1.06.451-1.58.451a3.22 3.22 0 0 1-1.025-.164 2.443 2.443 0 0 1-.86-.492 2.571 2.571 0 0 1-.596-.882c-.15-.355-.225-.78-.225-1.271 0-.588.116-1.265.349-2.03.246-.766.71-1.641 1.394-2.626a52.639 52.639 0 0 1 1.456-2.01c.41-.546.745-1.018 1.005-1.414.273-.41.472-.78.595-1.108.123-.342.184-.718.184-1.128 0-.355-.102-.629-.307-.82a.995.995 0 0 0-.698-.287c-.697 0-1.415.198-2.153.595a11.16 11.16 0 0 0-2.194 1.579 20.687 20.687 0 0 0-2.133 2.214 44.349 44.349 0 0 0-1.99 2.564 59.776 59.776 0 0 0-1.722 2.543c-.52.834-.97 1.586-1.353 2.256-.383.656-.677 1.19-.882 1.6-.22.396-.335.6-.349.615a405.793 405.793 0 0 1-1.682 3.404 558.753 558.753 0 0 0-1.538 3.138c-.492.984-.943 1.88-1.353 2.686l-1.067 2.133c-.3.602-.533 1.073-.697 1.415-.178.342-.273.52-.287.533l-2.235-1.271 3.035-5.742a561.427 561.427 0 0 1 2.584-4.84c.82-1.504 1.627-2.967 2.42-4.389a385.726 385.726 0 0 1 2.522-4.45 532.489 532.489 0 0 1 2.892-5.004 983.07 983.07 0 0 1 3.589-6.05l.717.287Zm16.694 0-4.656 9.352a31.814 31.814 0 0 1 2.584-2.933c.903-.916 1.826-1.661 2.769-2.235.697-.41 1.313-.69 1.846-.841a5.16 5.16 0 0 1 1.517-.246c.465 0 .848.075 1.149.226.301.15.54.348.718.594.177.246.3.52.369.82.068.288.102.575.102.862 0 .642-.109 1.278-.328 1.907a13.172 13.172 0 0 1-.82 1.866 22.443 22.443 0 0 1-1.046 1.825 35.74 35.74 0 0 0-1.067 1.744c-.314.56-.581 1.114-.799 1.66a4.24 4.24 0 0 0-.328 1.58c0 .246.027.451.082.615.068.15.15.273.246.37a.9.9 0 0 0 .348.163c.123.028.246.041.369.041.26 0 .561-.116.903-.348.355-.246.731-.56 1.128-.944.396-.396.8-.84 1.21-1.333.424-.506.827-1.018 1.21-1.538a43.16 43.16 0 0 0 1.107-1.558c.342-.52.643-.992.902-1.415l.759.574c-.15.3-.376.697-.677 1.19a24.87 24.87 0 0 1-1.025 1.599c-.396.56-.834 1.128-1.312 1.702-.465.56-.957 1.073-1.477 1.538-.52.465-1.053.84-1.6 1.128-.533.3-1.059.451-1.579.451a3.22 3.22 0 0 1-1.025-.164 2.441 2.441 0 0 1-.861-.492 2.554 2.554 0 0 1-.595-.882c-.151-.355-.226-.78-.226-1.271 0-.588.116-1.265.349-2.03.246-.766.711-1.641 1.394-2.626a53.319 53.319 0 0 1 1.456-2.01c.411-.546.746-1.018 1.005-1.414.274-.41.472-.78.595-1.108a3.31 3.31 0 0 0 .185-1.128c0-.355-.103-.629-.308-.82a.994.994 0 0 0-.697-.287c-.698 0-1.415.198-2.154.595-.738.396-1.469.922-2.194 1.579a20.717 20.717 0 0 0-2.133 2.214 44.478 44.478 0 0 0-1.989 2.564 60.055 60.055 0 0 0-1.723 2.543 69.81 69.81 0 0 0-1.353 2.256 29.66 29.66 0 0 0-.882 1.6c-.219.396-.335.6-.349.615a405.733 405.733 0 0 1-1.681 3.404 565.434 565.434 0 0 0-1.538 3.138c-.492.984-.944 1.88-1.354 2.686l-1.066 2.133c-.301.602-.534 1.073-.697 1.415-.178.342-.274.52-.288.533l-2.235-1.271c1.121-2.12 2.133-4.033 3.035-5.742a561.522 561.522 0 0 1 2.584-4.84c.82-1.504 1.627-2.967 2.42-4.389a385.674 385.674 0 0 1 2.522-4.45 536.83 536.83 0 0 1 2.892-5.004A988.958 988.958 0 0 1 105 13.83l.718.287Zm11.094 13.207a6.358 6.358 0 0 0-.082.985c0 .492.069.963.206 1.415.15.437.362.827.635 1.169.287.328.636.587 1.046.779.424.191.903.287 1.436.287 1.791 0 3.52-.608 5.188-1.825 1.668-1.217 3.329-3.145 4.984-5.783l.697.615c-.902 1.504-1.818 2.775-2.748 3.814-.93 1.026-1.86 1.86-2.789 2.502-.916.643-1.819 1.108-2.707 1.395-.889.287-1.737.43-2.543.43-.588 0-1.21-.082-1.866-.246a5.635 5.635 0 0 1-1.826-.82 4.486 4.486 0 0 1-1.353-1.538c-.369-.643-.554-1.442-.554-2.4 0-1.025.178-2.01.533-2.953.342-.957.793-1.845 1.354-2.666.56-.82 1.203-1.565 1.928-2.235a15.477 15.477 0 0 1 2.194-1.743 11.399 11.399 0 0 1 2.194-1.108c.711-.273 1.34-.41 1.887-.41.355 0 .718.055 1.087.164.369.11.697.28.984.513.301.233.54.54.718.923.191.383.287.84.287 1.374 0 .724-.171 1.408-.513 2.05a6.963 6.963 0 0 1-1.333 1.764c-.56.534-1.21 1.019-1.948 1.456-.738.424-1.511.787-2.317 1.087-.807.301-1.62.54-2.441.718-.82.178-1.599.274-2.338.287Zm.165-.882a11.132 11.132 0 0 0 2.584-.574 11.83 11.83 0 0 0 2.214-1.046c.67-.424 1.265-.882 1.785-1.374a9.49 9.49 0 0 0 1.333-1.497c.355-.506.628-.991.82-1.456.191-.465.287-.882.287-1.25 0-.37-.103-.664-.308-.883a.892.892 0 0 0-.697-.328c-.601 0-1.278.219-2.03.656-.752.424-1.504 1.019-2.256 1.785a16.57 16.57 0 0 0-2.133 2.666 15.687 15.687 0 0 0-1.599 3.301Zm48.788 8.203c-.889 0-1.791-.082-2.707-.246a26.191 26.191 0 0 1-2.748-.615c-.93-.246-1.86-.52-2.789-.82-.93-.3-1.846-.595-2.749-.882a15.362 15.362 0 0 1-3.383 1.538 11.916 11.916 0 0 1-3.712.574c-1.108 0-1.955-.198-2.543-.594-.588-.397-.882-.923-.882-1.58 0-.86.478-1.524 1.436-1.989.957-.465 2.406-.697 4.347-.697.848 0 1.702.061 2.564.185.861.123 1.736.28 2.625.471.861-.752 1.681-1.6 2.461-2.543a41.796 41.796 0 0 0 2.276-3.035c-.561.069-1.128.123-1.702.164-.574.027-1.155.041-1.743.041-2.147 0-4.061-.253-5.743-.759-1.681-.52-3.103-1.223-4.265-2.112-1.162-.902-2.051-1.955-2.666-3.158a8.714 8.714 0 0 1-.903-3.917c0-1.64.315-3.097.944-4.368a9.216 9.216 0 0 1 2.584-3.2c1.107-.874 2.406-1.538 3.896-1.989 1.491-.465 3.09-.697 4.799-.697 1.08 0 2.065.082 2.953.246a22.36 22.36 0 0 1 2.297.533c.656.192 1.169.376 1.538.554.369.178.574.273.615.287l-.533.923c-.013 0-.184-.075-.512-.226-.329-.164-.78-.335-1.354-.512a19 19 0 0 0-2.051-.493 13.756 13.756 0 0 0-2.563-.225c-1.614 0-3.063.24-4.348.718-1.271.465-2.351 1.107-3.24 1.927a8.585 8.585 0 0 0-2.03 2.892 8.87 8.87 0 0 0-.698 3.507c0 1.394.322 2.645.964 3.753a8.966 8.966 0 0 0 2.584 2.789c1.08.752 2.331 1.326 3.753 1.723 1.436.396 2.94.594 4.512.594.642 0 1.271-.02 1.887-.061.628-.041 1.251-.11 1.866-.205a87.832 87.832 0 0 0 2.809-4.717c.916-1.627 1.826-3.22 2.728-4.778a92.107 92.107 0 0 1 2.727-4.43c.916-1.408 1.867-2.639 2.851-3.692.998-1.052 2.044-1.886 3.138-2.502a6.956 6.956 0 0 1 3.527-.943c.492 0 .95.082 1.374.246.424.15.793.39 1.107.718.315.314.561.718.739 1.21.177.492.266 1.066.266 1.723 0 1.066-.205 2.194-.615 3.383-.41 1.176-1.005 2.359-1.784 3.548-.779 1.176-1.73 2.338-2.851 3.487a25.73 25.73 0 0 1-3.814 3.158 30.652 30.652 0 0 1-4.676 2.604c-1.695.752-3.5 1.34-5.414 1.764a52.705 52.705 0 0 1-2.789 3.527 27.059 27.059 0 0 1-3.035 2.974c1.039.273 2.057.567 3.056.882.998.3 1.941.574 2.83.82.902.26 1.736.472 2.502.636.765.178 1.442.266 2.03.266.875 0 1.716-.15 2.522-.45.821-.302 1.634-.835 2.441-1.6l.841.656a9.627 9.627 0 0 0-.226.267 5.59 5.59 0 0 1-.615.553 7.795 7.795 0 0 1-1.026.718c-.41.26-.895.499-1.456.718-.547.218-1.176.396-1.886.533-.698.15-1.477.225-2.338.225Zm12.899-31.438c-.766 0-1.524.273-2.276.82-.752.547-1.511 1.292-2.277 2.236-.765.93-1.545 2.03-2.338 3.301a167.38 167.38 0 0 0-2.419 4.04 885.834 885.834 0 0 1-2.605 4.41 94.77 94.77 0 0 1-2.83 4.47 26.597 26.597 0 0 0 4.676-1.763 28.256 28.256 0 0 0 4.122-2.44 25.693 25.693 0 0 0 3.425-2.892 20.968 20.968 0 0 0 2.604-3.179c.725-1.08 1.278-2.147 1.661-3.2.383-1.066.574-2.084.574-3.055 0-.506-.061-.93-.184-1.271a2.22 2.22 0 0 0-.513-.862 1.757 1.757 0 0 0-.738-.471 2.652 2.652 0 0 0-.882-.144Zm-31.11 29.92a9.42 9.42 0 0 0 2.871-.43 12.367 12.367 0 0 0 2.625-1.148 30.46 30.46 0 0 0-2.625-.636 12.53 12.53 0 0 0-2.42-.246c-.93 0-1.613.137-2.051.41-.424.274-.636.588-.636.943 0 .11.028.226.082.35.069.136.185.259.349.368.164.11.39.199.677.267.287.082.663.123 1.128.123Zm38.329-5.598a40.49 40.49 0 0 1-1.866 2.051 16.137 16.137 0 0 1-1.846 1.6 8.653 8.653 0 0 1-1.805 1.025c-.601.26-1.21.39-1.825.39-.52 0-.991-.096-1.415-.287a3.097 3.097 0 0 1-1.066-.76 3.43 3.43 0 0 1-.718-1.23 5.169 5.169 0 0 1-.246-1.64c0-.944.212-1.914.635-2.912.411-.998.93-1.97 1.559-2.912a25.134 25.134 0 0 1 2.112-2.687c.78-.848 1.518-1.6 2.215-2.256l.882.615c-.492.725-1.046 1.545-1.661 2.461a44.866 44.866 0 0 0-1.723 2.85c-.533.972-.984 1.95-1.353 2.933-.369.971-.554 1.874-.554 2.707 0 .561.103 1.04.308 1.436.218.397.629.595 1.23.595.656 0 1.374-.26 2.153-.78.793-.519 1.6-1.196 2.42-2.03a32.189 32.189 0 0 0 2.482-2.81 61.292 61.292 0 0 0 2.358-3.178 73.003 73.003 0 0 0 2.01-3.056 55.175 55.175 0 0 0 1.497-2.481l1.497.738a173.405 173.405 0 0 1-2.297 4.368c-.724 1.34-1.374 2.55-1.948 3.63a41.04 41.04 0 0 0-1.354 2.79c-.328.792-.492 1.421-.492 1.886 0 .191.041.349.123.472.082.123.212.184.39.184.506.014 1.06-.205 1.661-.656a12.306 12.306 0 0 0 1.846-1.702 25.35 25.35 0 0 0 1.825-2.235 68.78 68.78 0 0 0 1.62-2.297l.738.574c-.082.136-.253.417-.512.84a29.176 29.176 0 0 1-2.277 3.18 16.393 16.393 0 0 1-1.558 1.66 9.424 9.424 0 0 1-1.702 1.23c-.588.315-1.169.473-1.744.473a2.42 2.42 0 0 1-.963-.185 2.148 2.148 0 0 1-1.149-1.21 2.306 2.306 0 0 1-.164-.861c0-.356.055-.745.164-1.17.123-.423.294-.874.513-1.353Zm16.468 3.774c-.711.478-1.45.861-2.215 1.148-.752.301-1.477.451-2.174.451-.52 0-1.039-.075-1.559-.225a4.015 4.015 0 0 1-1.415-.738c-.424-.356-.765-.82-1.025-1.395-.274-.574-.41-1.285-.41-2.133 0-1.025.184-2.01.553-2.953a10.83 10.83 0 0 1 1.477-2.625 13.592 13.592 0 0 1 2.112-2.235 15.43 15.43 0 0 1 2.441-1.703 12.995 12.995 0 0 1 2.522-1.107c.834-.26 1.593-.39 2.277-.39.669 0 1.237.076 1.702.226a4.31 4.31 0 0 1 1.21.533c.328.205.588.43.779.677.191.246.349.479.472.697l1.107-1.456.677.451c0 .014-.11.233-.328.657-.219.41-.506.963-.862 1.66l-1.251 2.462c-.464.93-.957 1.92-1.476 2.973a853.379 853.379 0 0 0-1.559 3.261 224.632 224.632 0 0 0-1.497 3.302 43.956 43.956 0 0 0 3.281-2.051 24.873 24.873 0 0 0 2.523-1.99 19.36 19.36 0 0 0 2.03-2.091 26.832 26.832 0 0 0 1.743-2.358l.759.574a20.808 20.808 0 0 1-1.784 2.481 20.388 20.388 0 0 1-2.235 2.256 33.901 33.901 0 0 1-2.995 2.297 79.42 79.42 0 0 1-4.06 2.584c-1.299 3.185-2.55 5.817-3.753 7.895-1.203 2.092-2.345 3.747-3.425 4.963-1.066 1.217-2.057 2.072-2.973 2.564-.93.492-1.764.738-2.502.738-.301 0-.622-.04-.964-.123a2.44 2.44 0 0 1-.985-.43c-.3-.22-.547-.52-.738-.903-.205-.383-.308-.875-.308-1.477 0-1.148.308-2.283.923-3.404.602-1.12 1.484-2.235 2.646-3.343 1.148-1.107 2.556-2.208 4.224-3.301 1.682-1.094 3.582-2.195 5.702-3.302.259-.588.499-1.148.717-1.682.219-.52.424-.998.616-1.435Zm1.066-2.256c.369-.697.731-1.381 1.087-2.05.369-.684.745-1.361 1.128-2.031.396-.684.813-1.381 1.251-2.092.451-.71.95-1.45 1.497-2.215a2.025 2.025 0 0 0-.205-.636 2.095 2.095 0 0 0-.451-.594 2.222 2.222 0 0 0-.739-.472c-.3-.123-.656-.184-1.066-.184a8.1 8.1 0 0 0-1.6.184 8.865 8.865 0 0 0-1.866.636c-.656.3-1.326.704-2.01 1.21-.67.506-1.326 1.141-1.968 1.907-.944 1.121-1.668 2.242-2.174 3.363-.506 1.108-.759 2.12-.759 3.035 0 .89.226 1.566.677 2.03.451.452 1.066.677 1.845.677.821 0 1.689-.253 2.605-.758.93-.506 1.846-1.176 2.748-2.01Zm-12.899 20.61c.519 0 1.059-.191 1.62-.574.56-.383 1.128-.91 1.702-1.58a19.35 19.35 0 0 0 1.702-2.296 47.556 47.556 0 0 0 1.661-2.81 52.518 52.518 0 0 0 1.559-3.035c.506-1.039.984-2.057 1.435-3.055-2.037 1.066-3.78 2.173-5.229 3.322-1.436 1.162-2.612 2.27-3.528 3.322-.916 1.053-1.579 2.003-1.989 2.85-.424.848-.636 1.498-.636 1.949 0 .56.123 1.019.37 1.374.246.355.69.533 1.333.533Zm40.092-28.3c0 .587-.102 1.189-.307 1.804a13.72 13.72 0 0 1-.78 1.825 32.92 32.92 0 0 1-1.004 1.784 84.973 84.973 0 0 0-1.005 1.703 12.84 12.84 0 0 0-.78 1.579c-.205.492-.307.943-.307 1.353 0 .315.068.527.205.636.137.11.287.164.451.164.52 0 1.101-.253 1.743-.759.643-.52 1.292-1.169 1.948-1.948.67-.78 1.333-1.627 1.99-2.543a70.013 70.013 0 0 0 1.784-2.604l.738.574c-.109.164-.307.492-.595.984a37.9 37.9 0 0 1-1.066 1.661 40.663 40.663 0 0 1-1.436 1.949c-.519.67-1.08 1.292-1.681 1.866a10.23 10.23 0 0 1-1.866 1.394c-.629.37-1.265.554-1.908.554-.369 0-.704-.061-1.005-.185a2.35 2.35 0 0 1-.779-.512 2.59 2.59 0 0 1-.492-.759 2.47 2.47 0 0 1-.185-.943c0-.534.117-1.108.349-1.723.246-.629.547-1.271.902-1.928a30.34 30.34 0 0 1 1.169-1.969c.424-.67.814-1.305 1.169-1.907.356-.601.65-1.155.882-1.66.246-.52.369-.965.369-1.334 0-.424-.116-.78-.348-1.066-.219-.287-.534-.431-.944-.431-.437 0-.943.185-1.517.554-.575.355-1.217.882-1.928 1.579a33.99 33.99 0 0 0-2.338 2.584 108.375 108.375 0 0 0-2.727 3.466c-.561.752-1.108 1.476-1.641 2.174-.232.3-.465.608-.697.922l-.698.944c-.232.3-.451.588-.656.861-.205.287-.39.533-.554.738L213.261 32l2.399-3.302c.342-.465.691-.964 1.046-1.497.356-.533.704-1.08 1.046-1.64.355-.575.69-1.149 1.005-1.723a52.84 52.84 0 0 0 .882-1.682c.396-.82.67-1.497.82-2.03.15-.547.226-.984.226-1.313 0-.369-.069-.608-.206-.717-.136-.123-.328-.185-.574-.185-.259 0-.56.137-.902.41-.328.26-.67.602-1.025 1.026-.356.41-.718.881-1.087 1.415-.356.52-.698 1.039-1.026 1.558-.328.52-.636 1.012-.923 1.477-.287.465-.526.84-.717 1.128l-.739-.574a300.628 300.628 0 0 0 1.887-2.995 26.37 26.37 0 0 1 1.641-2.358c.533-.656 1.046-1.162 1.538-1.518.506-.369 1.039-.553 1.599-.553.301 0 .588.061.862.184.287.123.533.308.738.554.219.233.39.52.513.861.123.342.184.739.184 1.19 0 .355-.041.724-.123 1.107a16.229 16.229 0 0 1 1.682-1.456c.519-.383.998-.683 1.435-.902a5.646 5.646 0 0 1 1.21-.492 4.038 4.038 0 0 1 1.005-.144c.26 0 .561.048.903.144a2.5 2.5 0 0 1 .963.533c.301.26.554.622.759 1.087.219.45.328 1.039.328 1.763Zm20.262-2.995c-.178.356-.431.82-.759 1.395-.314.574-.656 1.21-1.025 1.907-.369.684-.745 1.401-1.128 2.153-.369.752-.711 1.49-1.025 2.215a23.724 23.724 0 0 0-.759 2.03c-.192.63-.287 1.163-.287 1.6 0 .438.082.725.246.861.177.123.403.185.677.185.396 0 .799-.116 1.209-.349a6.167 6.167 0 0 0 1.231-.902c.41-.37.807-.786 1.189-1.25.383-.466.739-.93 1.067-1.396.342-.478.649-.93.923-1.353.273-.438.506-.807.697-1.107l.738.574A24.247 24.247 0 0 1 252 27.878c-.369.506-.772.998-1.21 1.477-.437.478-.902.902-1.394 1.271-.479.37-.985.663-1.518.882a4.283 4.283 0 0 1-1.641.328c-.82 0-1.422-.246-1.804-.738-.383-.492-.575-1.128-.575-1.908v-.348c.014-.192.035-.342.062-.451-.684.861-1.34 1.572-1.969 2.132-.615.561-1.217 1.005-1.805 1.333a6.095 6.095 0 0 1-1.681.677 6.189 6.189 0 0 1-1.538.205 4.1 4.1 0 0 1-1.477-.266 3.354 3.354 0 0 1-1.189-.739 3.277 3.277 0 0 1-.821-1.21c-.205-.478-.307-1.032-.307-1.66 0-.78.178-1.669.533-2.667.342-1.011.957-2.098 1.846-3.26.752-.998 1.531-1.84 2.338-2.523.82-.683 1.62-1.23 2.399-1.64.793-.424 1.545-.725 2.256-.903.711-.178 1.347-.267 1.907-.267 1.258 0 2.208.212 2.851.636.642.41 1.032 1.046 1.169 1.907.273-.341.56-.683.861-1.025l.923-1.046.656.287Zm-6.296 7.793c.178-.287.397-.65.656-1.087.26-.45.534-.909.821-1.374.287-.478.567-.936.841-1.374.273-.437.512-.806.717-1.107 0-.123-.02-.321-.061-.595a2.14 2.14 0 0 0-.267-.82c-.15-.287-.389-.533-.718-.738-.328-.205-.786-.308-1.374-.308-.423 0-.902.068-1.435.205-.52.123-1.08.342-1.682.656-.588.301-1.196.704-1.825 1.21a13.64 13.64 0 0 0-1.887 1.887c-.943 1.135-1.674 2.276-2.194 3.425-.506 1.134-.759 2.16-.759 3.076 0 .78.178 1.38.533 1.805.356.424.862.635 1.518.635.752 0 1.456-.164 2.112-.492a8.416 8.416 0 0 0 1.846-1.312 16.98 16.98 0 0 0 1.641-1.764c.519-.656 1.025-1.299 1.517-1.928Zm20.139-6.603a1.97 1.97 0 0 0 .123-.697c0-.438-.178-.78-.533-1.026-.342-.26-.889-.39-1.641-.39-.615 0-1.237.137-1.866.41-.615.26-1.21.623-1.784 1.087a10.33 10.33 0 0 0-1.62 1.662c-.493.642-.923 1.34-1.292 2.091a13.46 13.46 0 0 0-.862 2.4 10.53 10.53 0 0 0-.307 2.522c0 .684.075 1.265.225 1.744.151.478.363.868.636 1.168.273.301.602.52.984.657.383.123.814.184 1.292.184.944 0 1.86-.212 2.748-.636.889-.423 1.73-.97 2.523-1.64a16.656 16.656 0 0 0 2.215-2.277 26.737 26.737 0 0 0 1.804-2.46l.759.574c-.738 1.244-1.524 2.338-2.358 3.281-.834.93-1.689 1.709-2.564 2.338s-1.763 1.1-2.666 1.415a8.01 8.01 0 0 1-2.645.472 6.31 6.31 0 0 1-1.969-.308 4.858 4.858 0 0 1-1.641-.923c-.464-.424-.84-.964-1.128-1.62-.273-.656-.41-1.435-.41-2.338 0-1.066.151-2.071.451-3.015.315-.957.725-1.838 1.231-2.645a11.981 11.981 0 0 1 1.784-2.174c.67-.656 1.367-1.21 2.092-1.66a10.01 10.01 0 0 1 2.215-1.026c.752-.246 1.456-.37 2.112-.37.67 0 1.217.096 1.641.288.424.177.758.396 1.005.656.246.26.41.533.492.82.095.287.143.533.143.739 0 .328-.048.676-.143 1.045-.096.37-.233.711-.41 1.026-.164.3-.376.554-.636.759-.246.205-.52.307-.82.307-.301 0-.561-.096-.78-.287a.998.998 0 0 1-.328-.759c0-.013.007-.095.021-.246.027-.15.095-.307.205-.471.109-.178.273-.335.492-.472.232-.137.554-.205.964-.205h.246Z"/></svg>