<svg xmlns="http://www.w3.org/2000/svg" width="66" height="66" fill="none"><path fill="#000" d="M33 0C14.773 0 0 14.773 0 33s14.773 33 33 33 33-14.773 33-33S51.227 0 33 0Zm-9.23 46.806h-6.432V26.22h6.432v20.586ZM20.38 23.64h-.052c-2.333 0-3.84-1.572-3.84-3.57 0-2.037 1.559-3.571 3.93-3.571 2.373 0 3.83 1.534 3.88 3.57.014 1.986-1.494 3.571-3.918 3.571ZM49.5 46.806h-7.296V36.158c0-2.784-1.135-4.692-3.648-4.692-1.92 0-2.99 1.29-3.48 2.527-.181.438-.155 1.057-.155 1.688v11.125h-7.232s.09-18.872 0-20.586h7.232v3.235c.425-1.418 2.733-3.429 6.42-3.429 4.575 0 8.159 2.965 8.159 9.333v11.447Z"/></svg>